<?xml version="1.0" encoding="UTF-8"?>
<svg id="Layer_1" xmlns="http://www.w3.org/2000/svg" version="1.1" viewBox="0 0 1920 549.39">
  <!-- Generator: Adobe Illustrator 29.5.1, SVG Export Plug-In . SVG Version: 2.1.0 Build 141)  -->
  <defs>
    <style>
      .st0 {
        fill: #f9f9f9;
      }
    </style>
  </defs>
  <path class="st0" d="M471.44,276.88c0,88.57,29.74,149.72,73.2,188.17-38.2-3.59-66.65-26.43-130.28-171l-15.1-34.33C330.64,105.84,315.12,36.54,180.51,36.54h-84.37v34.61h17.13c31.62,0,56.66,6.47,87.5,53.79-18.46,47.39-51.98,133.79-112.19,289.62-25.29,65.47-52.02,68.04-70.98,68.04H0v34.61h192.6v-34.61h-19.13c-47.76,0-46.56-29.23-26.75-82.92,3.37-9.12,6.65-18.01,9.85-26.67h155.38c46.67,109.04,80.65,144.2,217.2,144.2h156.58l-.03-.04c1.41.02,2.82.04,4.23.04h184.86v-192.27h-36.48c-10.93,105.26-57.89,157.66-114.77,157.66-64.97,0-117.64-68.39-117.64-205.73s52.67-205.73,117.64-205.73c56.88,0,104.3,52.4,115.24,157.66h36.01V36.54h-184.86c-106.74,0-218.48,68.67-218.48,240.34M229.24,177.63c10.8,22.49,22.48,49.7,35.4,82.6l15.1,34.24c4.29,10.61,8.36,20.76,12.28,30.47h-117.56c23.04-62.13,40.99-110.37,54.78-147.32"/>
  <path class="st0" d="M1547.78,36.54v34.61h17.48c17.48,0,48.85-3.85,48.85,64.63v323.76c-32.75-12.04-63.23-49-120.95-165.06l-17.01-34.24c-77.32-153.46-93.85-223.54-245.55-223.54h-84.32c-9.69-.22-20.34,0-32.04,0-106.87,0-219.71,69.45-219.71,240.66s111.88,239.7,218.75,239.7h184.56v-192.1h-36.53c-10.95,104.98-55.5,157.66-112.45,157.66-65.05,0-119.71-68.29-119.71-205.26s52.72-205.22,117.76-205.24h6.97c56.84,0,94.81,16.91,170.59,188.12l17.01,34.24c77.88,171.21,94.81,222.58,246.52,222.58h75.77V135.78c0-68.49,31.72-64.63,49.2-64.63h17.48v-34.61h-182.66Z"/>
  <rect class="st0" x="1885.49" y="36.54" width="34.51" height="480.51"/>
</svg>
